<svg fill="#1B5299" xmlns="http://www.w3.org/2000/svg" xmlns:xlink="http://www.w3.org/1999/xlink" version="1.1" x="0px" y="0px" viewBox="0 0 24 30" style="enable-background:new 0 0 24 24;" xml:space="preserve"><g><path fill="#1B5299" d="M7.833,23.873L7,23.5V13.203l-5.309,5.191L0.992,17.68l5.795-5.667L1,6.375l0.698-0.716L7,10.823V0.5l0.833-0.373   l6.151,5.5l0.017,0.73L8.22,12.011L14,17.642l-0.016,0.731L7.833,23.873z M8,13.193v9.188l4.919-4.397L8,13.193z M8,1.618v9.209   l4.919-4.811L8,1.618z"/><path fill="#1B5299" d="M20.708,19.448l-0.707-0.707l0.354-0.354c3.521-3.522,3.521-9.253,0-12.775l-0.354-0.354l0.707-0.707l0.354,0.354   c3.912,3.912,3.912,10.277,0,14.189L20.708,19.448z"/><path fill="#1B5299" d="M17.781,16.855l-0.707-0.707l0.354-0.354C18.441,14.781,19,13.434,19,12s-0.559-2.781-1.572-3.795l-0.354-0.354   l0.707-0.707l0.354,0.354C19.338,8.7,20,10.299,20,12c0,1.701-0.662,3.3-1.865,4.502L17.781,16.855z"/><path fill="#1B5299" d="M12.5,12.5c-0.07,0-0.13-0.01-0.19-0.04c-0.06-0.02-0.12-0.06-0.16-0.11C12.05,12.26,12,12.13,12,12   c0-0.07,0.01-0.13,0.04-0.19c0.02-0.06,0.06-0.12,0.11-0.16c0.04-0.05,0.1-0.09,0.16-0.11c0.12-0.05,0.26-0.05,0.38,0   c0.06,0.02,0.12,0.06,0.16,0.11C12.95,11.74,13,11.87,13,12c0,0.06-0.01,0.13-0.04,0.19c-0.02,0.06-0.06,0.12-0.11,0.16   c-0.04,0.05-0.1,0.09-0.16,0.11C12.63,12.49,12.56,12.5,12.5,12.5z"/><path fill="#1B5299" d="M15.5,12.5c-0.061,0-0.13-0.01-0.19-0.04c-0.06-0.02-0.12-0.06-0.16-0.11C15.05,12.26,15,12.13,15,12   c0-0.07,0.01-0.13,0.04-0.19c0.02-0.06,0.06-0.12,0.109-0.16c0.04-0.05,0.101-0.09,0.16-0.11c0.181-0.08,0.4-0.03,0.54,0.11   c0.05,0.04,0.09,0.1,0.11,0.16C15.99,11.87,16,11.93,16,12c0,0.13-0.05,0.26-0.15,0.35C15.76,12.45,15.63,12.5,15.5,12.5z"/></g><text x="0" y="39" fill="#1B5299" font-size="5px" font-weight="bold" font-family="'Helvetica Neue', Helvetica, Arial-Unicode, Arial, Sans-serif">Created by ✦ Shmidt Sergey ✦</text><text x="0" y="44" fill="#1B5299" font-size="5px" font-weight="bold" font-family="'Helvetica Neue', Helvetica, Arial-Unicode, Arial, Sans-serif">from the Noun Project</text></svg>