<?xml version="1.0" ?><!DOCTYPE svg  PUBLIC '-//W3C//DTD SVG 1.1//EN'  'http://www.w3.org/Graphics/SVG/1.1/DTD/svg11.dtd'><svg fill="#1B5299" enable-background="new 0 0 128 128" height="128px" id="Layer_1" version="1.1" viewBox="0 0 128 128" width="128px" xml:space="preserve" xmlns="http://www.w3.org/2000/svg" xmlns:xlink="http://www.w3.org/1999/xlink"><path d="M64.046,114.174c-27.642,0-50.129-22.488-50.129-50.129s22.487-50.128,50.129-50.128c27.64,0,50.127,22.487,50.127,50.128  S91.686,114.174,64.046,114.174z M64.046,17.917c-25.436,0-46.129,20.693-46.129,46.128c0,25.436,20.693,46.129,46.129,46.129  c25.435,0,46.127-20.693,46.127-46.129C110.173,38.61,89.48,17.917,64.046,17.917z"/><g><path d="M64.044,66.988l-17.002-17c-0.781-0.782-0.781-2.048,0-2.829c0.781-0.781,2.047-0.781,2.828,0l14.174,14.173l12.761-12.758   L62.63,34.401c-0.781-0.781-0.781-2.047,0-2.829c0.781-0.781,2.047-0.781,2.828,0l17.005,17.001L64.044,66.988z"/><path d="M64.044,97.104c-0.512,0-1.023-0.195-1.414-0.586c-0.781-0.78-0.781-2.048,0-2.829l14.176-14.174L64.044,66.757   L49.87,80.931c-0.781,0.78-2.047,0.78-2.828-0.001s-0.781-2.048,0-2.828L64.044,61.1l18.418,18.416L65.458,96.52   C65.067,96.909,64.556,97.104,64.044,97.104z"/><path d="M64.044,97.104c-1.104,0-2-0.896-2-2V32.986c0-1.104,0.896-2,2-2s2,0.896,2,2v62.118   C66.044,96.209,65.148,97.104,64.044,97.104z"/></g></svg>